<?xml version="1.0" encoding="UTF-8" standalone="no"?>
<svg width="16px" height="17px" viewBox="0 0 16 17" version="1.1" xmlns="http://www.w3.org/2000/svg" xmlns:xlink="http://www.w3.org/1999/xlink" xmlns:sketch="http://www.bohemiancoding.com/sketch/ns">
    <!-- Generator: Sketch 3.3.2 (12043) - http://www.bohemiancoding.com/sketch -->
    <title>like copy</title>
    <desc>Created with Sketch.</desc>
    <defs></defs>
    <g id="icons" fill-rule="evenodd" sketch:type="MSPage">
        <path d="M15.0214424,9.6390227 C15.2265205,9.25816332 15.499958,8.75035082 15.499958,8.00816332 C15.499958,6.57261645 14.5136299,5.72300707 12.921833,5.72300707 L11.203083,5.72300707 C10.7733955,5.72300707 10.2558174,5.5374602 10.2265205,5.11753832 C10.187458,4.6390227 10.343708,4.22886645 10.5976143,3.7405852 C10.8612862,3.25230395 11.1542549,2.69566332 11.1151924,2.04136645 C11.0761299,1.3187102 10.6952705,0.703475821 10.0605049,0.361678946 C9.34761429,-0.0289460544 8.49800491,-0.00941480441 7.75581741,0.400741446 C7.06245804,0.791366446 5.58784866,2.58824145 5.14839554,3.12535082 L5.06050491,3.25230395 C3.80073929,4.81480395 2.70698929,6.17222582 0.812458038,6.34800707 L0.812458038,7.91050707 C3.44917679,7.74449145 4.88472366,5.95738207 6.27144241,4.22886645 L6.36909866,4.11167895 C7.43355179,2.78355395 8.30269241,1.89488207 8.51753616,1.76792895 C8.78120804,1.61167895 9.07417679,1.60191332 9.30855179,1.72886645 C9.46480179,1.81675707 9.55269241,1.9437102 9.56245804,2.1390227 C9.57222366,2.35386645 9.40620804,2.67613207 9.22066116,3.00816332 C8.91792679,3.59410082 8.58589554,4.31675707 8.66402054,5.25425707 C8.76167679,6.42613207 9.80659866,7.24644457 11.203083,7.24644457 L12.921833,7.24644457 C13.937458,7.24644457 13.937458,7.74449145 13.937458,8.00816332 C13.937458,8.3499602 13.8105049,8.59410082 13.6542549,8.88706957 C13.5273018,9.11167895 13.4589424,9.34605395 13.390583,9.61949145 C13.2831612,10.0491789 13.312458,10.3812102 13.3417549,10.6741789 C13.3612862,10.9671477 13.390583,11.2112883 13.2636299,11.6312102 C13.1855049,11.8851164 12.999958,12.0413664 12.7558174,12.3245696 C12.5995674,12.5003508 12.4237862,12.6956633 12.2480049,12.9495696 C12.0819893,13.2034758 11.984333,13.4573821 11.9159737,13.6624602 C11.7694893,14.0433196 11.7011299,14.2288664 11.1835518,14.4730071 C10.6464424,14.7269133 9.81636429,14.7659758 9.51362991,14.7562102 C8.34175491,14.7562102 7.20894241,14.4437102 6.15425491,13.8284758 C5.02144241,13.1644133 2.85347366,13.1937102 1.10542679,13.2132414 L0.812458038,13.2132414 L0.812458038,14.7562102 L1.11519241,14.7562102 C2.50191116,14.7464446 4.60152054,14.7366789 5.36323929,15.1858977 C6.66206741,15.9378508 8.05855179,16.3284758 9.49409866,16.3284758 L9.59175491,16.3284758 C9.94331741,16.3284758 11.0077705,16.2894133 11.8573799,15.8890227 C12.9511299,15.3714446 13.1952705,14.6976164 13.3808174,14.1995696 C13.4394112,14.0433196 13.4784737,13.9261321 13.546833,13.8284758 C13.6542549,13.6624602 13.781208,13.5159758 13.9179268,13.3694914 C14.2011299,13.0472258 14.5331612,12.6761321 14.7089424,12.0706633 C14.9140205,11.3675383 14.874958,10.8792571 14.8456612,10.5276946 C14.8261299,10.3128508 14.8065987,10.1663664 14.8554268,9.9905852 C14.874958,9.9124602 14.9433174,9.77574145 15.0214424,9.6390227 L15.0214424,9.6390227 Z" sketch:type="MSShapeGroup"></path>
    </g>
</svg>
