<?xml version="1.0" encoding="UTF-8" standalone="no"?>
<svg width="16px" height="17px" viewBox="0 0 16 17" version="1.1" xmlns="http://www.w3.org/2000/svg" xmlns:xlink="http://www.w3.org/1999/xlink" xmlns:sketch="http://www.bohemiancoding.com/sketch/ns">
    <!-- Generator: Sketch 3.3.2 (12043) - http://www.bohemiancoding.com/sketch -->
    <title>key copy</title>
    <desc>Created with Sketch.</desc>
    <defs></defs>
    <g id="icons" stroke="none" fill-rule="evenodd" sketch:type="MSPage">
        <path d="M2.6666317,16.5159758 C2.85181737,16.5159758 2.99996591,16.3678273 2.99996591,16.1826416 L2.99996591,14.5159706 L4.66663694,14.5159706 C4.85182261,14.5159706 4.99997115,14.367822 4.99997115,14.1826364 L4.99997115,12.5159653 L6.85182786,12.5159653 C6.9444207,12.5159653 7.03701353,12.4789282 7.09256923,12.4233725 L9.29627872,10.219663 C9.83331716,10.4233672 10.4073927,10.5159601 10.9999869,10.5159601 C13.7592534,10.5159601 16,8.27521347 16,5.51594697 C16,2.75668048 13.7592534,0.515933859 10.9999869,0.515933859 C8.24072039,0.515933859 5.99997377,2.75668048 5.99997377,5.51594697 C5.99997377,6.10854112 6.09256661,6.6826167 6.29627085,7.21965514 L0.0925508738,13.4233751 C0.0369951725,13.4789308 -4.19616699e-05,13.5715237 -4.19616699e-05,13.6641165 L-4.19616699e-05,16.1826416 C-4.19616699e-05,16.3678273 0.148106575,16.5159758 0.333292246,16.5159758 L2.6666317,16.5159758 Z M11.9999895,3.01594042 C12.833325,3.01594042 13.4999934,3.68260883 13.4999934,4.51594435 C13.4999934,5.34927987 12.833325,6.01594828 11.9999895,6.01594828 C11.166654,6.01594828 10.4999856,5.34927987 10.4999856,4.51594435 C10.4999856,3.68260883 11.166654,3.01594042 11.9999895,3.01594042 L11.9999895,3.01594042 Z" id="key-copy" sketch:type="MSShapeGroup"></path>
    </g>
</svg>
