<?xml version="1.0" encoding="UTF-8" standalone="no"?>
<svg width="16px" height="16px" viewBox="0 0 16 16" version="1.1" xmlns="http://www.w3.org/2000/svg" xmlns:xlink="http://www.w3.org/1999/xlink" xmlns:sketch="http://www.bohemiancoding.com/sketch/ns">
    <!-- Generator: Sketch 3.3.2 (12043) - http://www.bohemiancoding.com/sketch -->
    <title>cart copy</title>
    <desc>Created with Sketch.</desc>
    <defs></defs>
    <g id="icons" stroke="none" fill-rule="evenodd" sketch:type="MSPage">
        <path d="M4.66667891,14.333329 C4.66667891,15.2592573 5.40742159,16 6.33334994,16 C7.2592783,16 8.00002098,15.2592573 8.00002098,14.333329 C8.00002098,13.4074006 7.2592783,12.6666579 6.33334994,12.6666579 C5.40742159,12.6666579 4.66667891,13.4074006 4.66667891,14.333329 L4.66667891,14.333329 Z M10.0000262,14.333329 C10.0000262,15.2592573 10.7407689,16 11.6666973,16 C12.5926256,16 13.3333683,15.2592573 13.3333683,14.333329 C13.3333683,13.4074006 12.5926256,12.6666579 11.6666973,12.6666579 C10.7407689,12.6666579 10.0000262,13.4074006 10.0000262,14.333329 L10.0000262,14.333329 Z M15.9815234,3.40737438 C16.0185605,3.31478155 16.000042,3.20367014 15.9259677,3.12959588 C15.870412,3.05552161 15.7593006,2.99996591 15.6667078,2.99996591 L4.31482613,2.99996591 L3.75926912,0.759219289 C3.64815772,0.314773679 3.24074924,-4.19616699e-05 2.77778506,-4.19616699e-05 L1.00000262,-4.19616699e-05 C0.44444561,-4.19616699e-05 0,0.444403648 0,0.999960661 C0,1.55551767 0.44444561,1.99996328 1.00000262,1.99996328 L2.00000525,1.99996328 L4.03704762,10.2407256 C4.12964046,10.6851712 4.53704894,10.9999869 5.00001311,10.9999869 L12.9815155,10.9999869 C13.4444797,10.9999869 13.8333696,10.6851712 13.944481,10.2407256 L15.9815234,3.40737438 Z" id="cart-copy" sketch:type="MSShapeGroup"></path>
    </g>
</svg>
