<?xml version="1.0" encoding="UTF-8" standalone="no"?>
<svg width="16px" height="16px" viewBox="0 0 16 16" version="1.1" xmlns="http://www.w3.org/2000/svg" xmlns:xlink="http://www.w3.org/1999/xlink" xmlns:sketch="http://www.bohemiancoding.com/sketch/ns">
    <!-- Generator: Sketch 3.3.2 (12043) - http://www.bohemiancoding.com/sketch -->
    <title>user copy</title>
    <desc>Created with Sketch.</desc>
    <defs></defs>
    <g id="icons" stroke="none" fill-rule="evenodd" sketch:type="MSPage">
        <path d="M16.000042,14.9999974 C16.000042,11.6666553 10.0000262,12.3333237 10.0000262,9.66665006 C10.0000262,9.66665006 12.0000315,7.66664481 12.0000315,3.99996853 C12.0000315,1.79625905 10.2037305,-4.19616699e-05 8.00002098,-4.19616699e-05 C5.7963115,-4.19616699e-05 4.00001049,1.79625905 4.00001049,3.99996853 C4.00001049,7.66664481 6.00001574,9.66665006 6.00001574,9.66665006 C6.00001574,12.3333237 0,11.6666553 0,14.9999974 L0,15.6666658 C0,15.8518515 0.148148537,16 0.333334208,16 L15.6667078,16 C15.8518934,16 16.000042,15.8518515 16.000042,15.6666658 L16.000042,14.9999974 Z" id="user-copy" sketch:type="MSShapeGroup"></path>
    </g>
</svg>
