<?xml version="1.0" encoding="UTF-8" standalone="no"?>
<svg width="50px" height="50px" viewBox="0 0 50 50" version="1.1" xmlns="http://www.w3.org/2000/svg" xmlns:xlink="http://www.w3.org/1999/xlink" xmlns:sketch="http://www.bohemiancoding.com/sketch/ns">
    <!-- Generator: Sketch 3.3.2 (12043) - http://www.bohemiancoding.com/sketch -->
    <title>Imported Layers Copy 6</title>
    <desc>Created with Sketch.</desc>
    <defs></defs>
    <g id="mobile" stroke="none" stroke-width="1" fill="none" fill-rule="evenodd" sketch:type="MSPage">
        <g id="mobile-hp-1" sketch:type="MSArtboardGroup" transform="translate(-40.000000, -4434.000000)" fill="#FFFFFF">
            <g id="Imported-Layers-Copy-6" sketch:type="MSLayerGroup" transform="translate(40.000000, 4434.000000)">
                <path d="M25,0.00983935743 C11.1982932,0.00983935743 0.00983935743,11.1982932 0.00983935743,25 C0.00983935743,38.8017068 11.1982932,49.9901606 25,49.9901606 C25.1788153,49.9901606 25.3568273,49.9871486 25.534739,49.9834337 L25.534739,33.5075301 L20.0002008,33.5075301 L20.0002008,26.5893574 L25.534739,26.5893574 L25.534739,22.4384538 C25.534739,16.739257 28.7517068,12.753012 33.8366466,12.753012 L39.3711847,12.753012 L39.3711847,19.6711847 L36.6039157,19.6711847 C33.8393574,19.6711847 32.453012,21.0548193 32.453012,23.8220884 L32.453012,26.5893574 L39.3711847,26.5893574 L37.9875502,33.5075301 L32.453012,33.5075301 L32.453012,48.859739 C42.6144578,45.6888554 49.9901606,36.2059237 49.9901606,25 C49.9901606,11.1982932 38.8017068,0.00983935743 25,0.00983935743" id="Fill-1" sketch:type="MSShapeGroup"></path>
            </g>
        </g>
    </g>
</svg>