<?xml version="1.0" encoding="UTF-8" standalone="no"?>
<svg width="84px" height="50px" viewBox="0 0 84 50" version="1.1" xmlns="http://www.w3.org/2000/svg" xmlns:xlink="http://www.w3.org/1999/xlink" xmlns:sketch="http://www.bohemiancoding.com/sketch/ns">
    <!-- Generator: Sketch 3.3.2 (12043) - http://www.bohemiancoding.com/sketch -->
    <title>Imported Layers Copy 5</title>
    <desc>Created with Sketch.</desc>
    <defs></defs>
    <g id="mobile" stroke="none" stroke-width="1" fill="none" fill-rule="evenodd" sketch:type="MSPage">
        <g id="mobile-hp-1" sketch:type="MSArtboardGroup" transform="translate(-53.000000, -4272.000000)" fill="#FFFFFF">
            <g id="Imported-Layers-Copy-5" sketch:type="MSLayerGroup" transform="translate(53.000000, 4272.000000)">
                <path d="M80.5616341,30.3918478 C78.7202927,34.5190217 77.529439,36.2396739 76.2428049,36.236413 C75.5252195,36.2342391 74.3318049,35.536413 76.1623902,29.8391304 L77.4679756,25.6413043 C77.8239512,24.4918478 77.9187073,23.7418478 77.8797805,23.1423913 C77.6882195,20.1934783 74.1018293,17.9945652 71.6924634,16.2456522 C70.6906098,15.5461957 70.3960976,14.6961957 70.7520732,13.5467391 L71.0732195,12.5972826 C71.4286829,11.4478261 71.1920488,10.7483696 70.098,10.0983696 L69.699,9.84836957 C68.9015122,9.34891304 67.8520244,9.39891304 67.1226585,9.94836957 C65.6639268,11.0478261 64.3998293,12.9472826 64.5232683,14.8461957 C64.5621951,15.4461957 64.7414634,15.9956522 65.0610732,16.4956522 C65.5379268,17.4570652 64.5027805,19.4543478 63.9301463,20.9532609 C63.0338049,23.3521739 62.1579512,25.5494565 61.3164146,27.1005435 C57.9026341,33.3934783 53.1638049,36.1777174 50.058878,36.0146739 C46.1897561,35.811413 45.3820244,33.8375 45.3164634,32.0880435 C45.2447561,30.988587 45.8721951,30.3391304 46.8832683,30.4391304 C53.9013659,30.988587 57.3361463,28.6396739 59.0970732,24.0918478 C61.6211707,17.2951087 57.4944146,13.3967391 52.3289268,13.3967391 C45.1633171,13.3967391 40.9607561,20.1956522 39.5107317,26.4777174 C36.5886585,32.3902174 32.9182683,35.8728261 31.2188049,35.8728261 C30.7762683,35.8728261 29.562878,35.486413 31.3483902,29.8391304 L39.6490244,6.3 C40.0843902,4.90108696 39.5573415,4.15108696 38.1226829,4.15108696 L35.778878,4.15108696 C34.2008049,4.15108696 33.3787317,4.75108696 32.9054634,6.3 L25.0786098,28.2896739 C22.2190244,37.2853261 25.257878,40.6342391 29.4189512,40.6342391 C33.5267561,40.6342391 36.474439,38.1570652 39.2141707,34.0413043 C40.0695366,37.9983696 43.0715122,40.6342391 48.549439,40.6342391 C57.3935122,40.6342391 62.3991951,34.5211957 65.3832439,28.0902174 C66.3646098,25.975 67.307561,23.8418478 68.1593415,21.4929348 C68.5660244,20.3934783 69.3215122,20.2434783 70.1901951,21.0934783 C70.9016341,21.7429348 71.3200976,22.2929348 71.3620976,22.9423913 C71.3784878,23.1923913 71.363122,23.6918478 71.0450488,24.6918478 L69.7394634,28.8896739 C66.9116341,37.6353261 70.4544878,40.6342391 74.1848049,40.6342391 C79.206878,40.6342391 81.5399268,36.9717391 83.5979268,32.2711957 C84.317561,30.6266304 81.4456829,28.4097826 80.5616341,30.3918478 L80.5616341,30.3918478 Z M46.9052927,24.8913043 C47.8149512,22.6923913 49.730561,19.0440217 52.3130488,19.0440217 C53.9869024,19.0440217 53.9341463,20.4434783 53.1586829,22.4923913 C52.3893659,24.6418478 51.2758537,26.6407609 48.071561,26.6407609 C47.0159268,26.5907609 46.488878,25.8413043 46.9052927,24.8913043 L46.9052927,24.8913043 Z" id="Fill-1" sketch:type="MSShapeGroup"></path>
                <path d="M30.3111951,1.71684783 C29.3626098,0.739130435 28.0001707,0.15326087 26.2033902,0.15326087 C21.9941707,0.15326087 19.0126829,2.85163043 16.5474878,10.5483696 L15.9471951,12.4217391 L15.3013171,14.3701087 C14.7896341,15.986413 13.9844634,16.6326087 12.2896098,16.6326087 L9.05356098,16.6326087 C7.74387805,16.6326087 6.95304878,17.7016304 6.49770732,18.9945652 C6.11407317,20.2070652 6.44802439,21.0961957 7.60404878,21.0961957 L10.8395854,21.0961957 C12.303439,21.0961957 12.8955366,21.9043478 12.450439,23.3592391 L12.1969024,24.1875 L11.9735854,24.8336957 L8.03429268,37.2592391 C6.91873171,40.7076087 5.51685366,44.1559783 3.79485366,44.1559783 C3.57153659,44.1559783 3.41019512,44.0641304 3.29239024,43.9125 C3.29187805,43.9141304 3.29085366,43.9168478 3.29085366,43.9168478 C2.80273171,43.4130435 2.2884878,43.5586957 1.83417073,43.9233696 C0.978292683,44.611413 0.27095122,46.0809783 0.153658537,46.6407609 C0.0737560976,47.0228261 0.129585366,47.6766304 0.423073171,48.0396739 C1.37165854,49.0173913 2.73358537,49.6032609 4.53087805,49.6032609 C8.3154878,49.6032609 10.9589268,47.6342391 13.2463902,41.6429348 L15.5277073,34.5119565 L15.5097805,34.5108696 L16.2063659,32.4668478 C16.2176341,32.423913 16.2253171,32.3815217 16.2401707,32.3380435 C16.2616829,32.2766304 16.2826829,32.2184783 16.3047073,32.1619565 L16.3041951,32.1619565 L17.9816341,26.9956522 L18.204439,26.3657609 L19.1530244,23.3592391 C19.6641951,21.7429348 20.469878,21.0961957 22.1647317,21.0961957 L23.4344634,21.0505435 C24.7441463,21.0505435 25.4222927,20.3228261 25.8776341,19.0298913 C26.2607561,17.8173913 26.04,16.5869565 24.8844878,16.5869565 L23.6147561,16.6326087 C22.1509024,16.6326087 21.6305122,15.9233696 22.0750976,14.4684783 L22.6753902,12.5766304 L22.6743659,12.576087 L22.6999756,12.4972826 C23.8155366,9.04891304 25.2174146,5.60054348 26.9394146,5.60054348 C27.1627317,5.60054348 27.3240732,5.6923913 27.441878,5.84402174 C27.4423902,5.8423913 27.4434146,5.83967391 27.4434146,5.83967391 C27.9315366,6.34347826 28.5722927,6.17173913 29.022,5.80108696 C29.5393171,5.37391304 30.3762439,3.69673913 30.5273415,3.14619565 C30.6610244,2.65815217 30.6466829,2.06304348 30.3111951,1.71684783" id="Fill-2" sketch:type="MSShapeGroup"></path>
            </g>
        </g>
    </g>
</svg>