<?xml version="1.0" encoding="UTF-8" standalone="no"?>
<svg width="60px" height="60px" viewBox="0 0 60 60" version="1.1" xmlns="http://www.w3.org/2000/svg" xmlns:xlink="http://www.w3.org/1999/xlink" xmlns:sketch="http://www.bohemiancoding.com/sketch/ns">
    <!-- Generator: Sketch 3.3.2 (12043) - http://www.bohemiancoding.com/sketch -->
    <title>Imported Layers Copy 9</title>
    <desc>Created with Sketch.</desc>
    <defs></defs>
    <g id="mobile" stroke="none" stroke-width="1" fill="none" fill-rule="evenodd" sketch:type="MSPage">
        <g id="mobile-hp-1" sketch:type="MSArtboardGroup" transform="translate(-66.000000, -3934.000000)" fill="#FFFFFF">
            <g id="Imported-Layers-Copy-9" sketch:type="MSLayerGroup" transform="translate(66.000000, 3934.000000)">
                <path d="M29.9834043,59.9851718 C21.9770867,59.9851718 14.4527332,56.869689 8.79387889,51.2096563 C3.13266776,45.5496236 0.0160065466,38.0253682 0.0160065466,30.0214075 C0.0160065466,22.0163666 3.13266776,14.4921113 8.79387889,8.83080196 C14.4527332,3.17076923 21.9770867,0.0541080196 29.9834043,0.0541080196 C37.9872668,0.0541080196 45.5115221,3.17076923 51.1715548,8.83080196 C56.8328642,14.4921113 59.9495254,22.0163666 59.9495254,30.0214075 C59.9495254,38.0253682 56.8328642,45.5496236 51.1715548,51.2096563 C45.5115221,56.869689 37.9872668,59.9851718 29.9834043,59.9851718 L29.9834043,59.9851718 Z M29.9834043,1.21040917 C22.2860229,1.21040917 15.0525368,4.20932897 9.61011457,9.64693944 C4.1687725,15.0894599 1.17230769,22.3253028 1.17230769,30.0214075 C1.17230769,37.7152537 4.1687725,44.94982 9.61011457,50.3935188 C15.0525368,55.8335843 22.2860229,58.8313257 29.9834043,58.8313257 C37.6783306,58.8313257 44.9128969,55.8335843 50.354239,50.3935188 C55.795581,44.94982 58.7908674,37.7152537 58.7908674,30.0214075 C58.7908674,22.3253028 55.795581,15.0894599 50.354239,9.64693944 C44.9128969,4.20932897 37.6783306,1.21040917 29.9834043,1.21040917 L29.9834043,1.21040917 Z M55.8123732,38.1022586 C56.7438953,36.5036661 57.2499182,32.7475286 57.2499182,29.6848773 C57.2499182,14.6242881 45.0403601,2.58903437 29.9834043,2.58903437 C14.9227169,2.58903437 2.71443535,14.5413093 2.71443535,29.5983633 C2.71443535,32.6633715 3.22045827,36.5036661 4.15198036,38.1022586 L55.8123732,38.1022586 L55.8123732,38.1022586 Z M24.4122422,48.2347954 C24.4122422,48.5160393 24.183928,48.7444517 23.9038625,48.7444517 C23.6228151,48.7437643 23.3953846,48.5158429 23.3953846,48.2347954 L23.3953846,46.1265466 L20.8916858,46.1265466 L20.8916858,48.2347954 C20.8916858,48.5160393 20.6645499,48.7444517 20.3856628,48.7444517 C20.104419,48.7444517 19.8772831,48.5160393 19.8772831,48.2347954 L19.8772831,43.2202291 C19.8772831,42.9401637 20.104419,42.7117512 20.3856628,42.7117512 C20.6645499,42.7117512 20.8916858,42.9401637 20.8916858,43.2202291 L20.8916858,45.1986579 L23.3953846,45.1986579 L23.3953846,43.2202291 C23.3953846,42.9401637 23.6237971,42.7117512 23.9038625,42.7117512 C24.183928,42.7117512 24.4122422,42.9401637 24.4122422,43.2202291 L24.4122422,48.2347954 L24.4122422,48.2347954 Z M27.0890671,44.576072 C28.5686416,44.576072 28.8402619,45.7143044 28.8402619,46.3200982 C28.8402619,46.6433715 28.8402619,47.0196727 28.3053682,47.0196727 L26.1442881,47.0196727 C26.1442881,47.6494272 26.5902128,47.9391162 27.1683142,47.9391162 C27.554239,47.9391162 27.8234043,47.8081178 28.0350245,47.6674959 C28.131162,47.6062193 28.2020622,47.5700818 28.3149918,47.5700818 C28.5422259,47.5700818 28.7285106,47.7540098 28.7285106,47.9824223 C28.7285106,48.1230442 28.6551555,48.2347954 28.5770867,48.3056956 C28.4280196,48.4475941 27.9640262,48.7877578 27.1683142,48.7877578 C25.9520131,48.7877578 25.1983306,48.1326678 25.1983306,46.6686088 C25.1983306,45.3308347 25.8990835,44.576072 27.0890671,44.576072 L27.0890671,44.576072 Z M26.1707038,46.2311293 L27.903928,46.2311293 C27.903928,45.8032733 27.6587234,45.3837643 27.0890671,45.3837643 C26.582946,45.3837643 26.2128314,45.6721768 26.1707038,46.2311293 L26.1707038,46.2311293 Z M30.3992799,45.1025205 L30.3992799,47.1434043 C30.3992799,47.5436661 30.5374468,47.9283142 31.187725,47.9283142 C31.8272013,47.9283142 31.9653682,47.5436661 31.9653682,47.1434043 L31.9653682,45.1025205 C31.9653682,44.8404255 32.1757119,44.6300818 32.4378069,44.6300818 C32.700982,44.6300818 32.9101473,44.8404255 32.9101473,45.1025205 L32.9101473,47.1434043 C32.9101473,48.0016694 32.5855974,48.7876596 31.187725,48.7876596 C29.7754173,48.7876596 29.4508674,48.0016694 29.4508674,47.1434043 L29.4508674,45.1025205 C29.4508674,44.8404255 29.6636661,44.6300818 29.9256628,44.6300818 C30.185892,44.6288052 30.3979051,44.8386579 30.3992799,45.0988871 L30.3992799,45.1025205 L30.3992799,45.1025205 Z M34.6866776,45.1470049 C34.8525368,44.8068412 35.2636007,44.586874 35.6338134,44.586874 C35.8778396,44.586874 36.0797381,44.7864157 36.0797381,45.0327987 C36.0797381,45.2755483 35.8778396,45.4787234 35.6338134,45.4787234 C35.029198,45.4787234 34.6866776,45.8645499 34.6866776,46.4499182 L34.6866776,48.2708347 C34.6866776,48.531653 34.4775123,48.7444517 34.214239,48.7444517 C33.9522422,48.7444517 33.7418985,48.531653 33.7418985,48.2708347 L33.7418985,45.1025205 C33.7418985,44.8404255 33.9522422,44.6300818 34.214239,44.6300818 C34.4775123,44.6300818 34.6866776,44.8404255 34.6866776,45.1025205 L34.6866776,45.1470049 L34.6866776,45.1470049 Z M38.2059574,44.576072 C39.6844517,44.576072 39.956072,45.7143044 39.956072,46.3200982 C39.956072,46.6433715 39.956072,47.0195745 39.4236334,47.0195745 L37.2588216,47.0195745 C37.2588216,47.6494272 37.7072013,47.9391162 38.2853028,47.9391162 C38.6711293,47.9391162 38.9403928,47.8081178 39.1519149,47.6674959 C39.2480524,47.6062193 39.3190507,47.5700818 39.430802,47.5700818 C39.6603928,47.5700818 39.8418658,47.7540098 39.8418658,47.9824223 C39.8418658,48.1230442 39.7733224,48.2347954 39.6939771,48.3056956 C39.5450082,48.4475941 39.0798363,48.7876596 38.2853028,48.7876596 C37.0665466,48.7876596 36.3164975,48.1326678 36.3164975,46.6686088 C36.3164975,45.3308347 37.0172504,44.576072 38.2059574,44.576072 L38.2059574,44.576072 Z M37.2865139,46.2311293 L39.0209165,46.2311293 C39.0209165,45.8032733 38.7757119,45.3837643 38.2059574,45.3837643 C37.6975777,45.3837643 37.3321768,45.6721768 37.2865139,46.2311293 L37.2865139,46.2311293 Z M43.1869394,48.5605237 L41.8815712,46.8092308 L41.6015057,47.0268412 L41.6015057,48.2900818 C41.6015057,48.5521768 41.3924386,48.7444517 41.1303437,48.7444517 C40.8587234,48.7444517 40.6568249,48.5521768 40.6568249,48.2900818 L40.6568249,42.8981342 C40.6568249,42.6348609 40.8587234,42.4437643 41.1303437,42.4437643 C41.3924386,42.4437643 41.6015057,42.6348609 41.6015057,42.8981342 L41.6015057,45.9883797 L43.1869394,44.7442881 C43.2998691,44.6565957 43.3876596,44.6300818 43.4910638,44.6300818 C43.7470704,44.6300818 43.9477905,44.8296236 43.9477905,45.0844517 C43.9477905,45.2154501 43.8876923,45.356072 43.7734861,45.4450409 L42.6256301,46.3200982 L43.914108,48.008838 C43.9838298,48.1037971 44.0090671,48.2023895 44.0090671,48.2900818 C44.0090671,48.54491 43.8071686,48.7444517 43.5535188,48.7444517 C43.3876596,48.7444517 43.2651064,48.6651064 43.1869394,48.5605237 L43.1869394,48.5605237 Z M45.2711293,45.7503437 C45.1821604,45.8116203 45.1124386,45.8381342 45.0066776,45.8381342 C44.7796399,45.8381342 44.5956137,45.6540098 44.5956137,45.4269722 L44.5956137,45.4257938 C44.5956137,45.3308347 44.6304746,45.2250736 44.7109984,45.1373813 C44.9550245,44.8669394 45.3925041,44.576072 46.1437316,44.576072 C47.230311,44.576072 47.8794108,45.1108674 47.8794108,46.0388543 L47.8794108,48.2792799 C47.8794108,48.531653 47.6690671,48.7444517 47.414239,48.7444517 C47.1605892,48.7444517 46.9515221,48.531653 46.9515221,48.2792799 C46.7134861,48.6566612 46.328838,48.7877578 45.8035679,48.7877578 C44.945401,48.7877578 44.3769231,48.2528642 44.3769231,47.4655974 C44.3769231,46.6529951 45.0343699,46.2311293 45.7940426,46.2311293 L46.9406219,46.2311293 L46.9406219,46.0737152 C46.9406219,45.6806219 46.6522095,45.4186252 46.1437316,45.4186252 C45.7603601,45.4186252 45.4887398,45.591653 45.2711293,45.7503437 L45.2711293,45.7503437 Z M46.9406219,47.213126 L46.9406219,46.966743 L45.9165957,46.966743 C45.5319476,46.966743 45.3227823,47.150671 45.3227823,47.4655974 C45.3227823,47.7984943 45.5583633,48.0016694 46.0500491,48.0016694 C46.512766,48.0016694 46.9406219,47.7011784 46.9406219,47.213126 L46.9406219,47.213126 Z M9.18461538,22.6281506 C9.18461538,20.2519149 10.3372831,19.1100491 12.3613748,19.1100491 C14.3866448,19.1100491 15.5393126,20.2519149 15.5393126,22.6281506 C15.5393126,24.9731588 14.3866448,26.1355483 12.3613748,26.1355483 C10.3372831,26.1355483 9.18461538,24.9731588 9.18461538,22.6281506 L9.18461538,22.6281506 Z M10.3877578,22.6281506 C10.3877578,24.2820295 11.038036,25.0933552 12.3613748,25.0933552 C13.6847136,25.0933552 14.3361702,24.2820295 14.3361702,22.6281506 C14.3361702,20.9634697 13.6847136,20.152144 12.3613748,20.152144 C11.038036,20.152144 10.3877578,20.9634697 10.3877578,22.6281506 L10.3877578,22.6281506 Z M18.12,25.7052373 L15.8446154,19.9718494 C15.8145663,19.9021277 15.8037643,19.8420295 15.8037643,19.7507038 C15.8037643,19.4297872 16.0645827,19.1701473 16.3854992,19.1701473 C16.6764648,19.1701473 16.8567594,19.3504419 16.9168576,19.510311 L18.6608838,24.131784 L20.40491,19.510311 C20.4650082,19.3600655 20.6453028,19.1701473 20.9361702,19.1701473 C21.2570867,19.1701473 21.5179051,19.4297872 21.5179051,19.7507038 C21.5179051,19.8420295 21.5082815,19.9021277 21.4782324,19.9718494 L19.2017676,25.7052373 C19.1224223,25.9047791 18.9613748,26.0754501 18.6608838,26.0754501 C18.3603928,26.0754501 18.2005237,25.9047791 18.12,25.7052373 L18.12,25.7052373 Z M23.3797709,22.0860884 L25.2752209,22.0860884 C25.5552864,22.0860884 25.7860556,22.3168576 25.7860556,22.5981015 C25.7860556,22.8781669 25.5552864,23.1089362 25.2752209,23.1089362 L23.3797709,23.1089362 L23.3797709,24.9527332 L26.036072,24.9527332 C26.3222259,24.9507692 26.5557447,25.1810475 26.5578069,25.4672013 L26.5578069,25.4743699 C26.5597709,25.7605237 26.3293944,25.9940426 26.0433388,25.9961047 L26.036072,25.9961047 L22.7992144,25.9961047 C22.4782979,25.9961047 22.2174795,25.7352864 22.2174795,25.4142717 L22.2174795,19.8312275 C22.2174795,19.510311 22.4782979,19.2494926 22.7992144,19.2494926 L25.9267758,19.2494926 C26.2163666,19.2494926 26.4471358,19.4802619 26.4471358,19.7711293 C26.4471358,20.0619967 26.2163666,20.292766 25.9267758,20.292766 L23.3797709,20.292766 L23.3797709,22.0860884 L23.3797709,22.0860884 Z M24.2223241,18.7590835 L23.290802,18.1376759 C23.1898527,18.0666776 23.1105074,17.9669067 23.1105074,17.8071358 C23.1105074,17.585892 23.28,17.4152209 23.5011457,17.4152209 C23.591293,17.4152209 23.6814403,17.44527 23.7319149,17.4862193 L24.4530933,17.9874304 L25.1742717,17.4862193 C25.2247463,17.44527 25.3148936,17.4152209 25.4050409,17.4152209 C25.6250082,17.4152209 25.7956792,17.585892 25.7956792,17.8071358 C25.7956792,17.9669067 25.7164321,18.0666776 25.6153846,18.1376759 L24.6838625,18.7590835 C24.6129624,18.8095581 24.5324386,18.8288052 24.4530933,18.8288052 C24.3725696,18.8288052 24.2920458,18.8095581 24.2223241,18.7590835 L24.2223241,18.7590835 Z M28.4700491,23.4094272 L28.4700491,25.4948936 C28.4700491,25.8145336 28.2092308,26.0754501 27.8883142,26.0754501 C27.5673977,26.0754501 27.3065794,25.8145336 27.3065794,25.4948936 L27.3065794,19.8312275 C27.3065794,19.510311 27.5673977,19.2494926 27.8883142,19.2494926 L29.8031097,19.2494926 C31.1553191,19.2494926 31.9173486,20.2122422 31.9173486,21.3444845 C31.9173486,22.2976105 31.3367921,23.219509 30.3740426,23.3397054 L31.8572504,25.143928 C31.9473977,25.2641244 31.9774468,25.3843208 31.9774468,25.4948936 C31.9767594,25.8152209 31.7172177,26.0747627 31.3968903,26.0754501 C31.2262193,26.0754501 31.0446481,25.9961047 30.9448773,25.8651064 L29.1203273,23.4094272 L28.4700491,23.4094272 L28.4700491,23.4094272 Z M29.2609493,18.7590835 L28.3294272,18.1376759 C28.2284779,18.0666776 28.1491326,17.9669067 28.1491326,17.8071358 C28.1491326,17.585892 28.3198036,17.4152209 28.5397709,17.4152209 C28.6299182,17.4152209 28.7200655,17.44527 28.7705401,17.4862193 L29.4917185,17.9874304 L30.2128969,17.4862193 C30.2633715,17.44527 30.3535188,17.4152209 30.4449427,17.4152209 C30.66491,17.4152209 30.835581,17.585892 30.835581,17.8071358 C30.835581,17.9669067 30.7550573,18.0666776 30.6552864,18.1376759 L29.7224877,18.7590835 C29.6528642,18.8095581 29.5722422,18.8288052 29.4917185,18.8288052 C29.4124714,18.8288052 29.3318494,18.8095581 29.2609493,18.7590835 L29.2609493,18.7590835 Z M28.4700491,20.292766 L28.4700491,22.3877578 L29.8222586,22.3877578 C30.4449427,22.3877578 30.7153846,21.8757447 30.7153846,21.3444845 C30.7153846,20.8036007 30.4449427,20.292766 29.7922095,20.292766 L28.4700491,20.292766 L28.4700491,20.292766 Z M34.0183306,22.0860884 L35.9138789,22.0860884 C36.1939444,22.0860884 36.4247136,22.3168576 36.4247136,22.5981015 C36.4247136,22.8781669 36.1939444,23.1089362 35.9138789,23.1089362 L34.0183306,23.1089362 L34.0183306,24.9527332 L36.67473,24.9527332 C36.9607856,24.9507692 37.1943044,25.1810475 37.1963666,25.4672013 L37.1963666,25.4743699 C37.1983306,25.7605237 36.9680524,25.9940426 36.6818985,25.9961047 L36.67473,25.9961047 L33.4377741,25.9961047 C33.1168576,25.9961047 32.8560393,25.7352864 32.8560393,25.4142717 L32.8560393,19.8312275 C32.8560393,19.510311 33.1168576,19.2494926 33.4377741,19.2494926 L36.5653355,19.2494926 C36.8550245,19.2494926 37.0857938,19.4802619 37.0857938,19.7711293 C37.0857938,20.0619967 36.8549264,20.292766 36.5653355,20.292766 L34.0183306,20.292766 L34.0183306,22.0860884 L34.0183306,22.0860884 Z M43.0619313,19.7410802 L43.0619313,25.5045172 C43.0619313,25.8145336 42.8011129,26.0754501 42.4909984,26.0754501 C42.2999018,26.0754501 42.1196072,25.9756792 42.0198363,25.8254337 L39.062946,21.5548282 L39.062946,25.5045172 C39.062946,25.8145336 38.8021277,26.0754501 38.4920131,26.0754501 C38.1807201,26.0754501 37.9199018,25.8145336 37.9199018,25.5045172 L37.9199018,19.7410802 C37.9199018,19.4297872 38.1807201,19.1701473 38.4920131,19.1701473 C38.6915548,19.1701473 38.8526023,19.2602946 38.9523732,19.4105401 L41.9188871,23.7099182 L41.9188871,19.7410802 C41.9188871,19.4297872 42.1797054,19.1701473 42.4909984,19.1701473 C42.8011129,19.1701473 43.0619313,19.4297872 43.0619313,19.7410802 L43.0619313,19.7410802 Z M43.9585925,22.6281506 C43.9585925,20.2519149 45.1112602,19.1100491 47.1353519,19.1100491 C49.1607201,19.1100491 50.3133879,20.2519149 50.3133879,22.6281506 C50.3133879,24.9731588 49.1607201,26.1355483 47.1353519,26.1355483 C45.1112602,26.1355483 43.9585925,24.9731588 43.9585925,22.6281506 L43.9585925,22.6281506 Z M45.1617349,22.6281506 C45.1617349,24.2820295 45.8131915,25.0933552 47.1353519,25.0933552 C48.4587889,25.0933552 49.1102455,24.2820295 49.1102455,22.6281506 C49.1102455,20.9634697 48.4587889,20.152144 47.1353519,20.152144 C45.8131915,20.152144 45.1617349,20.9634697 45.1617349,22.6281506 L45.1617349,22.6281506 Z M8.89846154,34.3690016 C8.64373159,34.3690016 8.44173486,34.1670049 8.44173486,33.9121768 C8.44173486,33.8160393 8.47659574,33.7102782 8.52952537,33.6405565 L11.4766939,29.3591489 L9.06441899,29.3591489 C8.81793781,29.3591489 8.61721768,29.1572504 8.61721768,28.9120458 C8.61721768,28.6656628 8.81793781,28.4649427 9.06441899,28.4649427 L12.3806219,28.4649427 C12.6270049,28.4649427 12.827725,28.6656628 12.827725,28.9120458 C12.827725,28.9902128 12.8109329,29.0779051 12.7495581,29.1656956 L9.8095581,33.4566285 L12.486383,33.4566285 C12.7400327,33.4566285 12.9419313,33.6586252 12.9419313,33.9121768 C12.9419313,34.1670049 12.7400327,34.3690016 12.486383,34.3690016 L8.89846154,34.3690016 L8.89846154,34.3690016 Z M14.8614403,32.8328642 L14.3265466,34.1057283 C14.2472013,34.2896563 14.0801637,34.4387234 13.8530278,34.4387234 C13.5801309,34.4387234 13.3518167,34.210311 13.3518167,33.9386907 C13.3518167,33.885761 13.3614403,33.8160393 13.387856,33.7547627 L15.4576105,28.7101473 C15.5105401,28.5874959 15.6499836,28.3940426 15.9227823,28.3940426 C16.1944026,28.3940426 16.3350245,28.5874959 16.3879542,28.7101473 L18.4588871,33.7547627 C18.4841244,33.8160393 18.493748,33.885761 18.493748,33.9386907 C18.493748,34.210311 18.2654337,34.4387234 17.9937152,34.4387234 C17.765401,34.4387234 17.5983633,34.2896563 17.5201964,34.1057283 L16.9841244,32.8328642 L14.8614403,32.8328642 L14.8614403,32.8328642 Z M15.2472668,27.6391817 L15.9936825,26.6920458 C16.1150573,26.5345336 16.3434697,26.5429787 16.5189525,26.7184615 C16.7125041,26.9023895 16.6944354,27.1127332 16.5538134,27.24491 L15.6943699,28.0346318 C15.545401,28.1656301 15.4047791,28.1392144 15.2905728,28.0346318 C15.1511293,27.9023568 15.1511293,27.7449427 15.2472668,27.6391817 L15.2472668,27.6391817 Z M15.9227823,30.0610802 L15.2027823,31.9036989 L16.6427823,31.9036989 L15.9227823,30.0610802 L15.9227823,30.0610802 Z M20.1284779,30.9120786 L22.2342717,28.5610802 C22.3388543,28.446874 22.4698527,28.3940426 22.6021277,28.3940426 C22.873748,28.3940426 23.0937152,28.6127332 23.0937152,28.8856301 C23.0937152,29.026252 23.0407856,29.1308347 22.9614403,29.218527 L21.3123732,31.008216 L23.2511293,33.6490016 C23.3124059,33.728347 23.3485434,33.834108 23.3485434,33.9386907 C23.3485434,34.210311 23.1189525,34.4387234 22.8485106,34.4387234 C22.6369885,34.4387234 22.505892,34.316072 22.4349918,34.2199345 L20.6285106,31.7185925 L20.1284779,32.2450409 L20.1284779,33.9302455 C20.1284779,34.210311 19.9000655,34.4387234 19.6188216,34.4387234 C19.3387561,34.4387234 19.1103437,34.210311 19.1103437,33.9302455 L19.1103437,28.9024223 C19.1103437,28.6223568 19.3387561,28.3940426 19.6188216,28.3940426 C19.9000655,28.3940426 20.1284779,28.6223568 20.1284779,28.9024223 L20.1284779,30.9120786 L20.1284779,30.9120786 Z M25.266874,32.8328642 L24.7319804,34.1057283 C24.652635,34.2896563 24.4855974,34.4387234 24.2583633,34.4387234 C23.986743,34.4387234 23.7584288,34.210311 23.7584288,33.9386907 C23.7584288,33.885761 23.7667758,33.8160393 23.7931915,33.7547627 L25.8630442,28.7101473 C25.9158756,28.5874959 26.0564975,28.3940426 26.328216,28.3940426 C26.6010147,28.3940426 26.7404583,28.5874959 26.7933879,28.7101473 L28.8643208,33.7547627 C28.8907365,33.8160393 28.8991817,33.885761 28.8991817,33.9386907 C28.8991817,34.210311 28.6707692,34.4387234 28.3991489,34.4387234 C28.1708347,34.4387234 28.0036989,34.2896563 27.9255319,34.1057283 L27.3895581,32.8328642 L25.266874,32.8328642 L25.266874,32.8328642 Z M26.328216,30.0610802 L25.6093944,31.9036989 L27.0481178,31.9036989 L26.328216,30.0610802 L26.328216,30.0610802 Z M29.7790507,34.3690016 C29.5242226,34.3690016 29.3222259,34.1670049 29.3222259,33.9121768 C29.3222259,33.8160393 29.3570867,33.7102782 29.4100164,33.6405565 L32.3571849,29.3591489 L29.94491,29.3591489 C29.6997054,29.3591489 29.4977087,29.1572504 29.4977087,28.9120458 C29.4977087,28.6656628 29.6997054,28.4649427 29.94491,28.4649427 L33.2611129,28.4649427 C33.5074959,28.4649427 33.708216,28.6656628 33.708216,28.9120458 C33.708216,28.9902128 33.6914239,29.0779051 33.6301473,29.1656956 L30.6913257,33.4566285 L33.366874,33.4566285 C33.6217021,33.4566285 33.8236007,33.6586252 33.8236007,33.9121768 C33.8236007,34.1670049 33.6217021,34.3690016 33.366874,34.3690016 L29.7790507,34.3690016 L29.7790507,34.3690016 Z M38.8887398,28.8939771 L38.8887398,33.9386907 C38.8887398,34.210311 38.6615057,34.4387234 38.388707,34.4387234 C38.2228478,34.4387234 38.0641571,34.3509329 37.9764648,34.2199345 L35.3886088,30.4817676 L35.3886088,33.9386907 C35.3886088,34.210311 35.1601964,34.4387234 34.8885761,34.4387234 C34.6169558,34.4387234 34.3885434,34.210311 34.3885434,33.9386907 L34.3885434,28.8939771 C34.3885434,28.6223568 34.6169558,28.3940426 34.8885761,28.3940426 C35.0640589,28.3940426 35.2035025,28.4732897 35.2924714,28.6043863 L37.8886743,32.3688707 L37.8886743,28.8939771 C37.8886743,28.6223568 38.1170867,28.3940426 38.388707,28.3940426 C38.6615057,28.3940426 38.8887398,28.6223568 38.8887398,28.8939771 L38.8887398,28.8939771 Z M39.9091326,27.6391817 L40.6543699,26.6920458 C40.7770213,26.5345336 41.0053355,26.5429787 41.1808183,26.7184615 C41.3731915,26.9023895 41.3563011,27.1127332 41.2156792,27.24491 L40.3563339,28.0346318 C40.2072668,28.1656301 40.0666448,28.1392144 39.9524386,28.0346318 C39.8118167,27.9023568 39.8118167,27.7449427 39.9091326,27.6391817 L39.9091326,27.6391817 Z M40.9356137,33.9302455 C40.9356137,34.210311 40.7072995,34.4387234 40.4260556,34.4387234 C40.1447136,34.4387234 39.9175777,34.210311 39.9175777,33.9302455 L39.9175777,28.9024223 C39.9175777,28.6223568 40.1447136,28.3940426 40.4260556,28.3940426 C40.7072995,28.3940426 40.9356137,28.6223568 40.9356137,28.9024223 L40.9356137,33.9302455 L40.9356137,33.9302455 Z M42.9981997,30.9120786 L45.1040917,28.5610802 C45.2086743,28.446874 45.3408511,28.3940426 45.4718494,28.3940426 C45.7447463,28.3940426 45.963437,28.6127332 45.963437,28.8856301 C45.963437,29.026252 45.9106056,29.1308347 45.8324386,29.218527 L44.1821931,31.008216 L46.1221277,33.6490016 C46.1822259,33.728347 46.2182651,33.834108 46.2182651,33.9386907 C46.2182651,34.210311 45.9899509,34.4387234 45.7182324,34.4387234 C45.5067103,34.4387234 45.3757119,34.316072 45.3048118,34.2199345 L43.4982324,31.7185925 L42.9981997,32.2450409 L42.9981997,33.9302455 C42.9981997,34.210311 42.7697872,34.4387234 42.48982,34.4387234 C42.2087725,34.4387234 41.9808511,34.2111948 41.9801637,33.9302455 L41.9801637,28.9024223 C41.9801637,28.6223568 42.2084779,28.3940426 42.48982,28.3940426 C42.7697872,28.3940426 42.9981997,28.6223568 42.9981997,28.9024223 L42.9981997,30.9120786 L42.9981997,30.9120786 Z M48.7604583,30.71018 L50.086252,28.630802 C50.1783633,28.4827169 50.3408838,28.3930606 50.5152864,28.3940426 C50.7953519,28.3940426 51.0237643,28.6223568 51.0237643,28.9024223 C51.0237643,28.9997381 50.998527,29.1043208 50.9455974,29.1753191 L49.2701146,31.6753846 L49.2701146,33.9302455 C49.2701146,34.210311 49.0417021,34.4387234 48.7604583,34.4387234 C48.4803928,34.4387234 48.2519804,34.210311 48.2519804,33.9302455 L48.2519804,31.6753846 L46.5764975,29.1753191 C46.5235679,29.1043208 46.4971522,28.9997381 46.4971522,28.9024223 C46.4971522,28.6223568 46.7254664,28.3940426 47.0068085,28.3940426 C47.1906383,28.3940426 47.3397054,28.4817349 47.4358429,28.630802 L48.7604583,30.71018 L48.7604583,30.71018 Z M28.96527,6.68769231 C29.0565957,6.41126023 29.1455646,6.13482815 29.2333552,5.86202946 C29.3884124,5.38723404 29.5398363,4.91361702 29.696072,4.4400982 C29.7561702,4.25617021 29.9389198,4.17682488 30.1047791,4.25499182 C30.2009165,4.29819967 30.2465794,4.37754501 30.2766285,4.47486088 C30.4929624,5.13603928 30.705761,5.79829787 30.9232733,6.46301146 C30.9473322,6.53509002 30.9702128,6.60834697 30.9966285,6.68769231 L33.369329,6.68769231 C33.5904746,6.6889689 33.7382651,6.91247136 33.6493944,7.11201309 C33.6228805,7.16729951 33.5772177,7.21895254 33.526743,7.25381342 C32.9149591,7.70337152 32.3007201,8.15292962 31.6841244,8.60121113 C31.6324714,8.63734861 31.6240262,8.66494272 31.6432733,8.72621931 C31.8788543,9.43659574 32.1084452,10.1446154 32.3392144,10.8537152 C32.3584615,10.9090016 32.3752537,10.9739116 32.3692635,11.031653 C32.348838,11.2720458 32.0903764,11.3837971 31.8884779,11.2383633 C31.4810475,10.9450409 31.0771522,10.6493617 30.6709002,10.3525041 C30.4665466,10.203437 30.2598363,10.0580033 30.0578396,9.90294599 C30.0001964,9.85855974 29.9628805,9.85855974 29.9027823,9.90294599 C29.3042553,10.3428805 28.7020949,10.7804583 28.1011129,11.2202946 C28.0169558,11.2792144 27.9291653,11.3213421 27.8246809,11.2996399 C27.6419313,11.2587889 27.5457938,11.0856628 27.6070704,10.8958429 C27.6912275,10.6289362 27.7789198,10.3621277 27.8678887,10.0964975 C28.0169558,9.63731588 28.1647463,9.17823241 28.3174468,8.72022913 C28.3366939,8.66494272 28.3246154,8.63734861 28.2777741,8.60121113 C27.66,8.15292962 27.0445827,7.70101473 26.4267103,7.25145663 C26.3185925,7.17211129 26.2681178,7.06880524 26.2909002,6.93535188 C26.3137807,6.81751227 26.3870376,6.73099836 26.5060556,6.69977087 C26.5469067,6.68769231 26.5938462,6.68769231 26.6358756,6.68769231 L28.96527,6.68769231 L28.96527,6.68769231 Z M44.6689689,12.4079214 C44.7242553,12.2407856 44.7783633,12.0749264 44.8323732,11.9102455 C44.9249755,11.6230115 45.0163011,11.3381342 45.1100818,11.053257 C45.1461211,10.9426841 45.2543372,10.8933879 45.3564648,10.9402291 C45.4142062,10.966743 45.4418003,11.0160393 45.4598691,11.0736825 C45.589689,11.472766 45.719509,11.8730278 45.8492308,12.2708347 L45.8937152,12.4079214 L47.3240917,12.4079214 C47.457545,12.4079214 47.5464157,12.5437316 47.4911293,12.663928 C47.4779705,12.6963339 47.4479214,12.726383 47.4190507,12.7492635 C47.0500164,13.0197054 46.6798036,13.2913257 46.3084124,13.5593126 C46.2783633,13.5833715 46.2723732,13.6002619 46.2831751,13.6363011 C46.4249755,14.0641571 46.564419,14.4921113 46.7038625,14.9187889 C46.7146645,14.9536498 46.7231097,14.9908674 46.7207529,15.0257283 C46.7098527,15.1699836 46.553617,15.2372504 46.4310638,15.1507365 C46.1870376,14.9752537 45.9430115,14.7926023 45.6978069,14.6182979 C45.5752537,14.5269722 45.4502455,14.4380033 45.3288707,14.3466776 C45.2940098,14.3201637 45.2711293,14.3178069 45.23509,14.3442226 C44.8733224,14.6098527 44.5114566,14.8743044 44.1473322,15.1387561 C44.098036,15.1747954 44.046383,15.2000327 43.9826514,15.1880524 C43.8720786,15.1639935 43.8155155,15.0582324 43.8503764,14.9440262 C43.9021277,14.7829787 43.9549591,14.6231097 44.0078887,14.4620622 C44.098036,14.1855319 44.1869067,13.9090998 44.279509,13.6351227 C44.2914894,13.6002619 44.2843208,13.5833715 44.2554501,13.5593126 C43.8828805,13.2913257 43.5114894,13.0197054 43.1388216,12.7479869 C43.0739116,12.6999673 43.0438625,12.6374141 43.0582979,12.5580687 C43.0715548,12.4859902 43.1160393,12.4355155 43.1869394,12.41509 C43.2121768,12.4079214 43.2410475,12.4079214 43.2674632,12.4079214 L44.6689689,12.4079214 L44.6689689,12.4079214 Z M13.9563339,12.4079214 C14.0104419,12.2407856 14.0633715,12.0749264 14.1174795,11.9102455 C14.211162,11.6230115 14.3013093,11.3381342 14.39509,11.053257 C14.4323077,10.9426841 14.5417021,10.8933879 14.6426514,10.9402291 C14.6992144,10.966743 14.7268085,11.0160393 14.7460556,11.0736825 C14.8746972,11.472766 15.0045172,11.8730278 15.1343372,12.2708347 C15.1486743,12.3153191 15.1643863,12.3598036 15.18,12.4079214 L16.6102782,12.4079214 C16.7437316,12.4079214 16.8327005,12.5437316 16.7785925,12.663928 C16.7629787,12.6963339 16.7329296,12.726383 16.7052373,12.7492635 C16.3350245,13.0197054 15.9648118,13.2913257 15.5934206,13.5593126 C15.5633715,13.5833715 15.5573813,13.6002619 15.5693617,13.6363011 C15.7100818,14.0641571 15.8494272,14.4921113 15.9888707,14.9187889 C16.0009493,14.9536498 16.0105728,14.9908674 16.0069394,15.0257283 C15.9948609,15.1699836 15.8386252,15.2372504 15.7172504,15.1507365 C15.4720458,14.9752537 15.2292962,14.7926023 14.9840917,14.6182979 C14.8614403,14.5269722 14.7352537,14.4380033 14.6138789,14.3466776 C14.579018,14.3201637 14.5573159,14.3178069 14.5200982,14.3442226 C14.159509,14.6098527 13.7964648,14.8743044 13.4346972,15.1387561 C13.3842226,15.1747954 13.3325696,15.2000327 13.2676596,15.1880524 C13.1570867,15.1639935 13.0993453,15.0582324 13.1378396,14.9440262 C13.1883142,14.7829787 13.2412439,14.6231097 13.2940753,14.4620622 C13.3842226,14.1855319 13.4743699,13.9090998 13.5645172,13.6351227 C13.5753191,13.6002619 13.571784,13.5833715 13.5417349,13.5593126 C13.1690671,13.2913257 12.7964975,13.0197054 12.4251064,12.7479869 C12.3589198,12.6999673 12.3301473,12.6374141 12.3445827,12.5580687 C12.3577414,12.4859902 12.4022259,12.4355155 12.473126,12.41509 C12.4983633,12.4079214 12.527234,12.4079214 12.5524714,12.4079214 L13.9563339,12.4079214 L13.9563339,12.4079214 Z M38.507725,9.30805237 C38.57018,9.11204583 38.6327332,8.91741408 38.6951882,8.72386252 C38.8045827,8.39214403 38.9103437,8.05797054 39.0197381,7.72507365 C39.062946,7.59643208 39.1915876,7.53986907 39.3094272,7.59279869 C39.3766939,7.62530278 39.4079214,7.68176759 39.4296236,7.74903437 C39.5810475,8.21783961 39.7324714,8.68055646 39.8838953,9.14690671 C39.9007856,9.19865794 39.9175777,9.25031097 39.9368249,9.30805237 L40.0053682,9.30805237 C40.5378069,9.30805237 41.0715221,9.30677578 41.6051391,9.30805237 C41.7613748,9.30805237 41.8647791,9.46428805 41.7998691,9.60608838 C41.7830769,9.64330606 41.7505728,9.67944354 41.7157119,9.70468085 C41.285401,10.021964 40.8527332,10.3368903 40.4187889,10.6518167 C40.3827496,10.677054 40.3767594,10.6986579 40.3911948,10.7407856 C40.5558756,11.2383633 40.7181015,11.7383961 40.8803273,12.2384288 C40.8935843,12.2768249 40.9055646,12.3201309 40.9020295,12.360982 C40.8863175,12.531653 40.7048445,12.6109984 40.5642226,12.5075941 C40.2758101,12.3020622 39.9932897,12.0929951 39.707234,11.8850082 C39.5642553,11.7804255 39.417545,11.6771195 39.2769231,11.567725 C39.2348936,11.5388543 39.2096563,11.5363993 39.1663502,11.567725 C38.7444845,11.879018 38.3213421,12.1843208 37.8994763,12.4931588 C37.8393781,12.5376432 37.7792799,12.5665139 37.7047463,12.5509002 C37.5762029,12.5233061 37.5100164,12.4018331 37.5508674,12.2660229 C37.6122422,12.0797381 37.6746972,11.8909984 37.7347954,11.7023568 C37.8393781,11.3826187 37.9451391,11.0592471 38.0509002,10.7383306 C38.0641571,10.6986579 38.0581669,10.677054 38.0233061,10.6541735 C37.5881833,10.3368903 37.154239,10.0196072 36.7215712,9.70468085 C36.6446809,9.64811784 36.6109984,9.57486088 36.6277905,9.4810802 C36.6422259,9.39819967 36.6938789,9.33810147 36.7768576,9.31639935 C36.8069067,9.30677578 36.8381342,9.30795417 36.8693617,9.30795417 L38.507725,9.30805237 L38.507725,9.30805237 Z M19.9145008,9.30805237 C19.9769558,9.11204583 20.039509,8.91741408 20.1007856,8.72386252 C20.2113584,8.39214403 20.3171195,8.05797054 20.4277905,7.72507365 C20.46982,7.59643208 20.5971849,7.53986907 20.7162029,7.59279869 C20.7835679,7.62530278 20.8147954,7.68176759 20.8352209,7.74903437 C20.9866448,8.21783961 21.1380687,8.68055646 21.2895908,9.14690671 C21.306383,9.19865794 21.3244517,9.25031097 21.3424223,9.30805237 L21.4109656,9.30805237 C21.9445827,9.30805237 22.4782979,9.30677578 23.0120131,9.30805237 C23.1670704,9.30805237 23.2715548,9.46428805 23.2066448,9.60608838 C23.1898527,9.64330606 23.1574468,9.67944354 23.1225859,9.70468085 C22.6909984,10.021964 22.259509,10.3368903 21.8243863,10.6518167 C21.788347,10.677054 21.7811784,10.6986579 21.7967921,10.7407856 C21.961473,11.2383633 22.1236989,11.7383961 22.2883797,12.2384288 C22.3003601,12.2768249 22.3112602,12.3201309 22.3088052,12.360982 C22.2943699,12.531653 22.1117185,12.6109984 21.96982,12.5075941 C21.6837643,12.3020622 21.3988871,12.0929951 21.114108,11.8850082 C20.9698527,11.7804255 20.824419,11.6771195 20.6825205,11.567725 C20.6416694,11.5388543 20.6152537,11.5363993 20.5719476,11.567725 C20.1500818,11.879018 19.728216,12.1843208 19.3050736,12.4931588 C19.246252,12.5376432 19.1861538,12.5665139 19.1104419,12.5509002 C18.9829787,12.5233061 18.9144354,12.4018331 18.956563,12.2660229 C19.0178396,12.0797381 19.0803928,11.8909984 19.1416694,11.7023568 C19.246252,11.3826187 19.3508347,11.0592471 19.4565957,10.7383306 C19.4722095,10.6986579 19.4649427,10.677054 19.4300818,10.6541735 C18.9962357,10.3368903 18.5622913,10.0196072 18.1271686,9.70468085 C18.0502782,9.64811784 18.0165957,9.57486088 18.0333879,9.4810802 C18.0478232,9.39819967 18.0995745,9.33810147 18.1836334,9.31639935 C18.2125041,9.30677578 18.2461866,9.30795417 18.2774141,9.30795417 L19.9145008,9.30805237 L19.9145008,9.30805237 Z" id="Fill-1" sketch:type="MSShapeGroup"></path>
                <path d="M18.2101473,48.3393781 L17.0417676,47.1710966 L17.045401,47.1710966 C17.5382651,46.6205892 17.8399345,45.892144 17.8399345,45.0965303 C17.8399345,43.3812766 16.444419,41.9893944 14.7292635,41.9893944 C13.0176432,41.9893944 11.6234043,43.3812766 11.6234043,45.0965303 C11.6234043,46.8116858 13.0176432,48.2059247 14.7292635,48.2059247 C15.2593453,48.2059247 15.7544681,48.0701146 16.1908674,47.8369885 L17.451653,49.0954173 C17.6564975,49.3048773 17.9923404,49.3086088 18.2018003,49.1037643 C18.2045499,49.1010147 18.2073977,49.0982651 18.2101473,49.0954173 C18.418036,48.8863502 18.418036,48.5484452 18.2101473,48.3393781 L18.2101473,48.3393781 Z M12.4971849,45.0965303 C12.4971849,43.8656956 13.4996072,42.8632733 14.7292635,42.8632733 C15.1811784,42.8632733 15.6018658,42.9990835 15.9504746,43.2286743 L14.6667103,45.2888052 L14.1390835,44.5905074 C14.0602291,44.4868085 13.9375777,44.4259247 13.807365,44.4258265 C13.7147627,44.4258265 13.6282488,44.454599 13.5548936,44.5098854 C13.3722422,44.649329 13.3349264,44.9114239 13.4743699,45.0917185 L14.3673977,46.2719804 C14.446743,46.376563 14.5693944,46.4378396 14.7003928,46.4378396 L14.7171849,46.4378396 C14.8554501,46.433126 14.9804583,46.3573159 15.0513584,46.2407529 L16.5622586,43.8200327 C16.8158101,44.1842553 16.9648773,44.6217349 16.9648773,45.0965303 C16.9648773,46.3285434 15.962455,47.3285106 14.7292635,47.3285106 C13.4996072,47.3285106 12.4971849,46.3285434 12.4971849,45.0965303 L12.4971849,45.0965303 Z" id="Fill-2" sketch:type="MSShapeGroup"></path>
            </g>
        </g>
    </g>
</svg>