<?xml version="1.0" encoding="UTF-8" standalone="no"?>
<svg width="126px" height="26px" viewBox="0 0 126 26" version="1.1" xmlns="http://www.w3.org/2000/svg" xmlns:xlink="http://www.w3.org/1999/xlink" xmlns:sketch="http://www.bohemiancoding.com/sketch/ns">
    <!-- Generator: Sketch 3.3.2 (12043) - http://www.bohemiancoding.com/sketch -->
    <title>Imported Layers</title>
    <desc>Created with Sketch.</desc>
    <defs></defs>
    <g id="icons" stroke="none" fill-rule="evenodd" sketch:type="MSPage">
        <g id="Imported-Layers" sketch:type="MSLayerGroup" transform="translate(0.064000, 0.000000)">
            <path d="M7.62680702,15.0674386 C7.48754386,19.0549825 9.28764912,21.2623158 12.5093684,21.2623158 C17.3423158,21.2623158 21.3942105,14.9399649 21.5570526,10.2779649 L17.3965965,1.98161404 C18.2201404,1.22242105 20.1027719,0.147859649 21.398386,0.147859649 C22.694,0.147859649 24.5260351,0.680350877 24.3946316,4.44659649 C24.1192982,12.3347368 18.4790175,25.081614 8.47515789,25.081614 C3.01982456,25.081614 0.279754386,21.4732982 0.456350877,16.4104561 C0.619438596,11.7462456 4.22185965,8.14996491 9.43575439,5.50077193 C3.37522807,5.24361404 0.0125263158,8.42677193 0.0125263158,8.42677193 C0.116175439,5.46122807 2.05922807,0.147859649 6.40708772,0.147859649 C8.70235088,0.147859649 11.4527368,1.54663158 11.4527368,1.54663158 L12.4111228,0.147859649 L13.7833684,0.147859649 C13.7833684,0.147859649 7.82133333,9.49052632 7.62680702,15.0674386" id="Fill-1" sketch:type="MSShapeGroup"></path>
            <path d="M75.1605965,20.0219649 C74.500386,21.3367368 71.7011228,24.892 67.7374035,24.892 C64.9474737,24.892 63.2650175,23.1363509 63.9571579,19.7201053 L65.8056491,10.3017895 C66.2912281,7.81052632 67.2827719,3.99098246 64.7556491,3.99098246 C62.4667719,3.99098246 60.3070877,7.91589474 59.1212632,10.3226667 C57.9295439,12.7409825 57.2307719,14.9620702 56.8982105,16.695614 C56.5656491,18.4289123 55.5578947,24.132807 55.5578947,24.132807 L47.9352632,24.132807 L50.683193,8.21136842 C50.683193,8.21136842 50.7001404,8.21357895 51.3706667,4.22824561 C51.848386,1.38845614 50.6748421,1.00701754 49.2252281,1.00701754 L49.2252281,0.637122807 L59.7394737,0.637122807 L57.8676491,10.7760702 C59.1711228,7.69189474 63.0159649,0.147859649 68.701193,0.147859649 C72.8611579,0.147859649 74.8044561,2.99452632 73.5950526,9.09164912 L71.7116842,18.7948772 C71.4221053,20.6691579 71.8669123,21.1908421 72.6641754,21.1908421 C73.4454737,21.1908421 74.1803509,20.9945965 74.9616491,20.0219649 L75.1605965,20.0219649" id="Fill-2" sketch:type="MSShapeGroup"></path>
            <path d="M84.6034737,13.4569474 C84.1294386,17.7510175 86.6064561,20.1946316 90.2184561,20.1946316 C93.0550526,20.1946316 95.6855789,19.9765263 97.8700702,17.3430526 L98.0975088,17.3430526 C94.9374386,22.9420702 90.5247368,25.081614 85.2685965,25.081614 C82.3288421,25.081614 76.9648772,23.4654737 77.2063158,16.5467719 C77.5985614,5.31631579 86.471614,0.147859649 93.1390526,0.147859649 C99.5989474,0.147859649 100.233368,3.37891228 100.190386,4.60403509 C99.9668772,11.0101404 89.130386,12.9350175 84.6034737,13.4569474 L84.6034737,13.4569474 Z M87.7230175,4.72635088 C86.3389825,6.55322807 84.9458596,10.7731228 84.7270175,12.7689825 C89.9151228,11.7418246 92.8408772,8.68835088 93.583614,4.53673684 C93.9132281,2.94712281 93.1832632,1.73722807 91.9873684,1.73722807 C90.5677193,1.73722807 89.1321053,2.8997193 87.7230175,4.72635088 L87.7230175,4.72635088 Z" id="Fill-3" sketch:type="MSShapeGroup"></path>
            <path d="M125.944737,10.1799649 C125.650491,18.6020702 119.335018,25.081614 110.730912,25.081614 C102.127053,25.081614 100.688982,18.4438947 100.798035,15.3201754 C101.092281,6.89807018 107.418316,0.147859649 115.961018,0.147859649 C124.503965,0.147859649 126.086947,6.10719298 125.944737,10.1799649 L125.944737,10.1799649 Z M109.095123,13.4331228 C108.04193,20.0521754 108.689123,23.8243158 111.248175,23.8243158 C115.124456,23.8243158 117.052526,15.9717895 117.690632,11.962386 C118.804491,5.03484211 118.024667,1.40515789 115.71786,1.40515789 C112.502772,1.40515789 110.310912,5.72305263 109.095123,13.4331228 L109.095123,13.4331228 Z" id="Fill-4" sketch:type="MSShapeGroup"></path>
            <path d="M31.9084561,13.4569474 C31.4346667,17.7510175 33.9114386,20.1946316 37.5236842,20.1946316 C40.3600351,20.1946316 42.990807,19.9765263 45.1750526,17.3430526 L45.4024912,17.3430526 C42.2426667,22.9420702 37.8297193,25.081614 32.5735789,25.081614 C29.6338246,25.081614 24.2698596,23.4654737 24.5112982,16.5467719 C24.9035439,5.31631579 33.7765965,0.147859649 40.4440351,0.147859649 C46.9041754,0.147859649 47.5383509,3.37891228 47.495614,4.60403509 C47.2718596,11.0101404 36.4353684,12.9350175 31.9084561,13.4569474 L31.9084561,13.4569474 Z M35.0282456,4.72635088 C33.6439649,6.55322807 32.2510877,10.7731228 32.032,12.7689825 C37.2201053,11.7418246 40.1458596,8.68835088 40.8885965,4.53673684 C41.2182105,2.94712281 40.4882456,1.73722807 39.2925965,1.73722807 C37.8727018,1.73722807 36.4370877,2.8997193 35.0282456,4.72635088 L35.0282456,4.72635088 Z" id="Fill-5" sketch:type="MSShapeGroup"></path>
        </g>
    </g>
</svg>
