<?xml version="1.0" encoding="UTF-8" standalone="no"?>
<svg width="125px" height="26px" viewBox="0 0 125 26" version="1.1" xmlns="http://www.w3.org/2000/svg" xmlns:xlink="http://www.w3.org/1999/xlink" xmlns:sketch="http://www.bohemiancoding.com/sketch/ns">
    <!-- Generator: Sketch 3.3.2 (12043) - http://www.bohemiancoding.com/sketch -->
    <title>veneo</title>
    <desc>Created with Sketch.</desc>
    <defs></defs>
    <g id="mobile" stroke="none" stroke-width="1" fill="none" fill-rule="evenodd" sketch:type="MSPage">
        <g id="mobile-hp-1" sketch:type="MSArtboardGroup" transform="translate(-98.000000, -31.000000)" fill="#FFFFFF">
            <path d="M116.712003,31.735996 C115.512003,31.735996 114.528003,32.1199961 113.760003,32.8879962 L116.520003,41.9839977 C115.776003,45.3439983 114.696003,48.0079987 113.328003,49.951999 C111.960003,51.8959993 110.448002,52.8559995 108.744002,52.8559995 C106.920002,52.8559995 106.152002,51.7039993 106.536002,48.9919989 L108.768002,31.855996 L108.192002,31.351996 L98.2560004,33.1759963 L98.2080004,33.5599963 C99.4560006,33.7759964 100.248001,34.0399964 100.560001,34.3519965 C100.872001,34.6639965 100.968001,35.2879966 100.848001,36.2479968 L99.1440005,49.2799989 C98.8320005,51.7999993 99.1440005,53.6959996 100.080001,55.0159998 C101.016001,56.3120001 102.384001,56.9600002 104.136001,56.9600002 C106.368002,56.9600002 108.648002,56.024 110.928002,54.1519997 C113.232003,52.2559994 115.176003,49.855999 116.736003,46.9039985 C118.320004,43.951998 119.280004,40.9999975 119.616004,37.999997 C119.880004,35.6959967 119.736004,34.0879964 119.184004,33.1519963 C118.656004,32.2159961 117.840004,31.735996 116.712003,31.735996 L116.712003,31.735996 Z M144.312004,37.0879969 C144.552004,35.3119966 144.024004,33.9679964 142.752004,33.0799962 C141.480003,32.1919961 139.704003,31.735996 137.424003,31.735996 C133.848002,31.735996 130.680002,33.0079962 127.872001,35.5519966 C125.064001,38.0959971 123.384,41.4799976 122.808,45.6799983 C122.304,49.1839989 122.832,51.9439993 124.368001,53.9599997 C125.904001,55.952 128.016001,56.9600002 130.680002,56.9600002 C135.744003,56.9600002 139.704003,54.1279997 142.560004,48.4639988 L142.056004,48.1759987 C140.040003,50.8399992 137.904003,52.0159993 134.712002,52.0159993 C131.232002,52.0159993 129.336001,49.5439989 129.648002,45.1999982 C133.992002,44.6719981 137.448003,43.711998 140.016003,42.2959978 C142.608004,40.8799975 144.048004,39.1519972 144.312004,37.0879969 L144.312004,37.0879969 Z M136.368003,33.5839963 C137.520003,33.5839963 138.264003,34.5679965 138.000003,36.1759968 C137.424003,40.3759974 134.664002,43.0399979 129.744002,44.1439981 L129.768002,44.047998 C130.224002,40.7839975 131.088002,38.2159971 132.360002,36.3679968 C133.656002,34.5199965 135.000002,33.5839963 136.368003,33.5839963 L136.368003,33.5839963 Z M171.912005,51.5599993 C171.192004,52.5439994 170.520004,53.0239995 169.896004,53.0239995 C169.128004,53.0239995 168.912004,52.4959994 169.128004,50.5999991 L170.616004,40.7839975 C171.576005,34.6159965 169.608004,31.711996 165.600004,31.735996 C163.608003,31.735996 161.712003,32.7439962 159.912003,34.7839965 C158.136002,36.7999969 156.672002,39.3679973 155.520002,42.4879978 L156.912002,31.9039961 L156.336002,31.399996 L146.4,33.2239963 L146.352,33.6079963 C147.552001,33.8239964 148.320001,34.0639964 148.680001,34.3279964 C149.040001,34.5919965 149.160001,35.0959966 149.040001,35.8639967 L146.4,56 L153.744002,56 L154.512002,50.191999 C154.848002,47.6719986 155.448002,45.2719982 156.312002,42.9919979 C157.176002,40.7119975 158.112002,38.9119972 159.120002,37.591997 C160.152003,36.2719968 161.088003,35.6239967 161.928003,35.6239967 C162.816003,35.6239967 163.320003,36.0559967 163.488003,36.9439969 C163.656003,37.807997 163.536003,39.4879973 163.152003,42.0079977 L161.688003,51.5359993 C161.136003,54.9919998 162.816003,56.7680001 165.504004,56.7680001 C166.968004,56.7680001 168.312004,56.264 169.536004,55.2799999 C170.760004,54.2959997 171.720005,53.1439995 172.416005,51.8479993 L171.912005,51.5599993 Z M197.640004,37.0879969 C197.880004,35.3119966 197.352004,33.9679964 196.080004,33.0799962 C194.808003,32.1919961 193.032003,31.735996 190.752003,31.735996 C187.176002,31.735996 184.008002,33.0079962 181.200001,35.5519966 C178.392001,38.0959971 176.712,41.4799976 176.136,45.6799983 C175.632,49.1839989 176.16,51.9439993 177.696001,53.9599997 C179.232001,55.952 181.344001,56.9600002 184.008002,56.9600002 C189.072003,56.9600002 193.032003,54.1279997 195.888004,48.4639988 L195.384004,48.1759987 C193.368003,50.8399992 191.232003,52.0159993 188.040002,52.0159993 C184.560002,52.0159993 182.664001,49.5439989 182.976002,45.1999982 C187.320002,44.6719981 190.776003,43.711998 193.344003,42.2959978 C195.936004,40.8799975 197.376004,39.1519972 197.640004,37.0879969 L197.640004,37.0879969 Z M189.696003,33.5839963 C190.848003,33.5839963 191.592003,34.5679965 191.328003,36.1759968 C190.752003,40.3759974 187.992002,43.0399979 183.072002,44.1439981 L183.096002,44.047998 C183.552002,40.7839975 184.416002,38.2159971 185.688002,36.3679968 C186.984002,34.5199965 188.328002,33.5839963 189.696003,33.5839963 L189.696003,33.5839963 Z M212.400003,31.735996 C208.800002,31.735996 205.704001,32.9119962 203.088001,35.2879966 C200.496001,37.639997 198.936,40.8079975 198.432,44.8159982 C197.928,48.7519988 198.888,52.0399994 200.784001,53.9839997 C202.680001,55.904 205.248001,56.9600002 208.200002,56.9600002 C211.968003,56.9600002 215.112003,55.76 217.656003,53.3839996 C220.224004,51.0079992 221.736004,47.8639987 222.216004,43.975998 C222.672004,40.2559974 222.024004,37.2799969 220.272004,35.0479966 C218.520004,32.8159962 215.904003,31.711996 212.400003,31.735996 L212.400003,31.735996 Z M212.208003,33.4879963 C214.320003,33.4879963 215.304003,36.6799968 214.464003,43.687998 C213.984003,47.7439986 213.216003,50.6959991 212.184003,52.4959994 C211.152002,54.2959997 209.976002,55.2079999 208.656002,55.2079999 C206.256002,55.2079999 205.440001,51.8719993 206.232002,45.1759982 C207.144002,37.3759969 209.136002,33.4879963 212.208003,33.4879963 L212.208003,33.4879963 Z" id="veneo" sketch:type="MSShapeGroup"></path>
        </g>
    </g>
</svg>