<?xml version="1.0" encoding="UTF-8" standalone="no"?>
<svg width="92px" height="46px" viewBox="0 0 92 46" version="1.1" xmlns="http://www.w3.org/2000/svg" xmlns:xlink="http://www.w3.org/1999/xlink" xmlns:sketch="http://www.bohemiancoding.com/sketch/ns">
    <!-- Generator: Sketch 3.3.2 (12043) - http://www.bohemiancoding.com/sketch -->
    <title>Imported Layers Copy 7</title>
    <desc>Created with Sketch.</desc>
    <defs></defs>
    <g id="mobile" stroke="none" stroke-width="1" fill="none" fill-rule="evenodd" sketch:type="MSPage">
        <g id="mobile-hp-1" sketch:type="MSArtboardGroup" transform="translate(-36.000000, -4110.000000)" fill="#FFFFFF">
            <g id="Imported-Layers-Copy-7" sketch:type="MSLayerGroup" transform="translate(36.000000, 4110.000000)">
                <path d="M9.95304706,16.6505802 L9.95304706,3.74587654 C9.95304706,3.2677037 9.99850588,2.98091358 10.7732,2.98091358 L21.2030235,2.98091358 C23.0251647,2.98091358 24.0271529,4.60624691 24.7561176,7.66496296 L25.3481647,10.102963 L27.1243059,10.102963 C27.4427882,3.1728642 27.7158118,0.161567901 27.7158118,0.161567901 C27.7158118,0.161567901 23.2524588,0.687160494 20.6107059,0.687160494 L7.26637647,0.687160494 L0.114458824,0.448074074 L0.114458824,2.45560494 L2.52891765,2.93349383 C4.21414118,3.2682716 4.62327059,3.65018519 4.761,5.27580247 C4.761,5.27580247 4.89791765,10.0552593 4.89791765,17.9419877 C4.89791765,25.8275802 4.761,30.5599012 4.761,30.5599012 C4.761,31.9935679 4.21414118,32.5191605 2.52891765,32.8547901 L0.114458824,33.332963 L0.114458824,35.339358 L7.26637647,35.1008395 L19.1995882,35.1008395 C21.8868,35.1008395 28.1265647,35.339358 28.1265647,35.339358 C28.2626706,33.6183333 29.1742824,25.8275802 29.3109294,24.9683457 L27.6257059,24.9683457 L25.8492941,29.2222099 C24.4370941,32.5671481 22.3879294,32.8065185 20.1101176,32.8065185 L13.3232235,32.8065185 C11.0456824,32.8065185 9.95250588,31.8504568 9.95250588,29.7955062 L9.95250588,18.8977654 C9.95250588,18.8977654 14.9169882,18.8977654 16.6474,19.0414444 C17.9229529,19.1374198 18.6968353,19.5196173 19.1073176,21.3834691 L19.6541765,23.8688889 L21.6116118,23.8688889 L21.4755059,17.6069259 L21.7485294,11.2983951 L19.7905529,11.2983951 L19.1533176,14.070321 C18.7428353,15.8864691 18.4700824,16.2218148 16.6934,16.4123457 C14.6896941,16.652 9.95223529,16.6040123 9.95223529,16.6040123 L9.95223529,16.6514321 L9.95304706,16.6514321 L9.95304706,16.6505802" id="Fill-1" sketch:type="MSShapeGroup"></path>
                <path d="M36.9620824,5.08441975 C36.3243059,8.0477284 35.6865294,10.3417654 33.4547176,11.8714074 C32.0885176,12.8269012 30.7217765,13.1611111 30.176,13.2090988 L30.176,15.0252469 L34.2294118,15.0252469 L34.2294118,29.6983951 C34.2294118,33.8094321 36.8259765,35.8172469 40.2870706,35.8172469 C42.9745529,35.8172469 45.7524118,34.6223827 46.7092118,32.1363951 L45.7524118,30.8458395 C45.2967412,31.6587901 43.8401647,32.8533704 42.0180235,32.8533704 C40.0143176,32.8533704 38.9211412,31.4191358 38.9211412,27.7874074 L38.9211412,14.835 L45.6625765,15.3611605 L46.0265176,12.1102099 L38.9214118,12.397284 L38.9214118,5.13183951 L36.9620824,5.08441975" id="Fill-2" sketch:type="MSShapeGroup"></path>
                <path d="M51.3552118,27.6539506 L49.6245294,27.7016543 C49.7154471,28.7528395 49.7614471,30.0916667 49.7614471,31.3342346 C49.7614471,32.6247901 49.7159882,33.8196543 49.6245294,34.3929506 C49.6245294,34.3929506 53.0861647,35.7300741 56.5932588,35.7300741 C61.3301765,35.7300741 65.1108353,33.3403457 65.1108353,28.6562963 C65.1108353,20.6275926 53.6330235,21.8227407 53.6330235,16.4208642 C53.6330235,14.1748148 55.5458118,13.3141605 57.6409765,13.3141605 C59.2807412,13.3141605 60.6469412,13.9354444 60.9202353,14.8443704 L62.0591412,18.428963 L63.7446353,18.3335556 C63.8815529,16.4214321 63.9722,14.2228025 64.2457647,12.454642 C62.7878353,11.7853704 59.7358706,11.402321 57.8244353,11.402321 C53.3597294,11.402321 49.7622588,13.4578395 49.7622588,18.0464815 C49.7622588,26.0280494 60.9662353,24.403 60.9662353,30.2827654 C60.9662353,32.3848519 59.7358706,33.8667901 56.9582824,33.8667901 C54.4082588,33.8667901 53.1324353,32.4811111 52.6323882,31.0942963 L51.3552118,27.6539506" id="Fill-3" sketch:type="MSShapeGroup"></path>
                <path d="M87.5355647,12.2314568 L82.8984941,11.9929383 L82.8984941,13.6628519 L84.0798824,14.0436296 C85.2615412,14.4261111 85.8081294,14.9028642 85.8081294,15.7618148 C85.8081294,16.1908642 85.6712118,16.6204815 85.4433765,17.2877654 C84.8645882,18.8279136 81.7306353,26.8287901 80.1019647,30.612716 C78.1215294,25.3715556 75.4559647,17.7577037 75.0324941,16.3825309 C74.9415765,16.0960247 74.8961176,15.8575062 74.8961176,15.6178519 C74.8961176,14.8548765 75.3961647,14.2344444 76.4874471,13.9962099 L77.9878588,13.6631358 L77.9878588,11.9932222 L71.7586471,12.2317407 L66.8033647,11.9932222 L66.8033647,13.6631358 L67.6218941,13.9490741 C68.7583647,14.3307037 69.0313882,14.6649136 69.7132706,16.3345432 C73.4038235,25.2034568 75.1824,30.1447654 77.5132471,36.4314321 C75.1556118,41.4883086 72.4816588,42.9074938 70.0331059,42.9074938 C68.8049059,42.9074938 68.2144824,42.3344815 68.0318353,41.4295309 L67.3499529,37.7072222 L65.4401412,37.8026296 C65.0764706,39.9975679 64.7128,42.4315926 64.2132941,44.4348642 C65.3500353,45.3400988 67.2584941,45.8182716 68.7594471,45.8182716 C71.8971882,45.8182716 76.6703647,45.3880864 81.0341412,34.5110741 L88.3543647,16.3822469 C88.9458706,14.9028642 89.1723529,14.7597531 90.9000588,14.0436296 L91.8549647,13.6628519 L91.8549647,11.9929383 L87.5355647,12.2314568" id="Fill-4" sketch:type="MSShapeGroup"></path>
            </g>
        </g>
    </g>
</svg>