<?xml version="1.0" encoding="UTF-8" standalone="no"?>
<svg width="74px" height="62px" viewBox="0 0 74 62" version="1.1" xmlns="http://www.w3.org/2000/svg" xmlns:xlink="http://www.w3.org/1999/xlink" xmlns:sketch="http://www.bohemiancoding.com/sketch/ns">
    <!-- Generator: Sketch 3.3.2 (12043) - http://www.bohemiancoding.com/sketch -->
    <title>Imported Layers Copy 8</title>
    <desc>Created with Sketch.</desc>
    <defs></defs>
    <g id="mobile" stroke="none" stroke-width="1" fill="none" fill-rule="evenodd" sketch:type="MSPage">
        <g id="mobile-hp-1" sketch:type="MSArtboardGroup" transform="translate(-61.000000, -4591.000000)" fill="#FFFFFF">
            <g id="Imported-Layers-Copy-8" sketch:type="MSLayerGroup" transform="translate(61.000000, 4591.000000)">
                <path d="M35.8474477,11.1741847 L39.512342,11.1741847 L39.512342,11.6447821 C39.512342,12.9990011 39.5037849,14.3532202 39.5221216,15.7074393 C39.5245665,15.8713974 39.627252,16.0904254 39.7543864,16.1867978 C41.0538469,17.1780561 41.6552905,18.5047402 41.4108013,20.1318056 C41.1589773,21.7964187 40.1810202,22.8890557 38.575948,23.3546467 C38.5099359,23.3734206 38.4488136,23.4034587 38.3033425,23.4622834 C39.7018212,23.6800598 40.8533657,24.282074 41.9376757,25.2095013 L41.9376757,22.7438714 L45.8446144,22.7438714 L45.8446144,39.8218004 L53.0228197,39.8218004 L53.0228197,43.5615477 L41.9621246,43.5615477 L41.9621246,27.3484665 L33.3389876,27.3484665 L33.3389876,43.5615477 L21.3284517,43.5615477 L19.3370865,36.672803 L15.082973,50.8608135 L10.8471962,36.6340037 C10.8471962,36.6340037 3.88780883,59.5543492 3.6763256,60.2627484 C3.38905069,61.2302265 2.54434023,61.8535178 1.77786633,61.6607731 C0.698446154,61.3904299 0.0737760404,60.4917892 0.29503884,59.4091649 C0.466181337,58.5743551 10.8508636,22.7976897 10.8508636,22.7976897 L15.0805281,37.0445249 L19.3407538,22.8177151 L24.3002189,39.7767432 L29.2376799,39.7767432 L29.2376799,22.7476262 L33.3145387,22.7476262 L33.3145387,25.2107529 C34.4269649,24.2933383 35.5797319,23.6800598 36.8034008,23.4885667 C36.3180895,23.1981981 35.7227581,22.9378677 35.2386694,22.5361077 C33.2253001,20.8627335 33.3878855,17.7187424 35.5430585,16.2481256 C35.7704335,16.091677 35.8547823,15.9327252 35.8523375,15.6611305 C35.8425579,14.1805009 35.8474477,12.701123 35.8474477,11.1741847" id="Fill-1" sketch:type="MSShapeGroup"></path>
                <path d="M62.0787026,43.5653024 L59.5873569,43.0121002 L59.5873569,44.510252 C65.3279652,44.510252 69.4659463,48.0922991 70.6541642,48.965908 C71.8411596,47.7956725 73.3899992,47.5090587 73.3899992,47.5090587 L68.5026585,61.7083335 L46.9912691,61.7083335 L42.3960931,47.5466064 C42.3960931,47.5466064 43.8972573,47.7956725 44.9143327,49.0034557 C46.9912691,46.6216822 52.8553445,44.5490512 56.5630245,44.5490512 L56.5630245,43.0058422 C56.5630245,43.0058422 54.7965894,43.3813189 53.9127607,43.5690572 L53.9127607,39.8518385 C54.7892547,40.0270609 55.6669712,40.2010318 56.5434653,40.3762542 C56.2977536,38.8180262 56.0508194,37.2597981 55.8051077,35.7015701 L60.3171574,35.7015701 C60.0592212,37.2585465 59.801285,38.815523 59.5433488,40.373751 C60.3880593,40.2060381 61.2339922,40.0383252 62.0787026,39.8706123 L62.0787026,43.5653024 C61.2413269,43.3788157 62.0787026,43.5653024 62.0787026,43.5653024 L62.0787026,43.5653024 Z M45.8837327,50.9521794 C47.2638747,49.9183671 48.5828943,49.3501458 49.8530161,50.9334056 C51.156144,52.5567163 50.04983,53.6418437 48.7173634,54.6656434 C48.9202895,54.8133308 51.1536991,55.4566475 50.3578865,56.0874482 C49.7222144,55.4203514 48.9153997,56.4191193 48.1978237,55.8959551 C47.952112,55.7157264 46.3335929,54.5079432 46.4607274,55.4203514 C46.8959183,58.550575 55.6376325,59.1901368 56.2451884,54.2313421 C56.391882,53.0373264 54.9457279,54.4678923 54.8014792,54.7832927 C54.4506371,55.5517682 53.2086315,55.3828037 52.514282,55.8896972 C52.0852033,54.2050587 53.4861269,55.2976957 53.9115382,54.1186991 C52.2392315,53.6894041 50.6219349,52.2087746 51.5082086,50.2562961 C51.9042812,49.3826871 52.9494729,48.9458826 53.8491934,49.01472 C54.2990537,49.0485129 55.8185546,50.1323888 55.9738053,50.0335133 C54.6413387,48.8983222 55.5972918,47.3688807 56.162062,46.096015 C53.8100752,46.096015 46.9814895,47.3676292 45.8837327,50.9521794 L45.8837327,50.9521794 Z M59.2010638,46.0997697 C59.8819665,47.6830295 60.3892817,48.5165877 59.4296613,50.0472807 C60.8232502,49.507846 62.6104668,48.0272164 63.7840154,50.0923379 C64.9282252,52.1061443 63.1679024,53.6067993 61.4748141,54.1349697 C61.830546,55.1975686 63.3207082,54.2688897 62.879405,55.7870669 C62.298743,55.5730452 60.9626091,55.4566475 60.6252139,54.9147095 C60.4284,54.596806 59.0824865,53.3101727 59.1313844,54.1537436 C59.4272164,59.1963948 67.8682088,58.4917503 68.8657251,55.7833121 C69.1737816,54.9472508 67.8229783,54.8458721 67.5051422,55.4303641 C66.8193498,56.6957204 65.7008113,55.2676576 64.9465619,56.1450213 C65.1030351,54.6618886 65.8756212,55.5442587 66.6323155,54.6456179 C65.4049793,53.7407193 64.226541,52.7106617 65.3805304,51.1073764 C66.633538,49.3651649 68.3144018,49.9271282 69.4781707,50.9221413 C68.8046028,48.1073181 61.9857967,46.0997697 59.2010638,46.0997697 L59.2010638,46.0997697 Z" id="Fill-2" sketch:type="MSShapeGroup"></path>
                <path d="M62.9307478,43.5590445 L62.9307478,39.8605996 C63.0578822,39.8493353 68.9733004,39.8555933 71.8118209,39.8605996 C72.8606799,39.8618512 73.679719,40.6440942 73.6980557,41.6578811 C73.7176149,42.7304927 72.9719226,43.551535 71.8949473,43.5590445 C68.9733004,43.5778183 63.0236537,43.5753151 62.9307478,43.5590445" id="Fill-3" sketch:type="MSShapeGroup"></path>
                <path d="M44.017057,12.4708307 C44.1930893,14.0953929 44.3727889,15.7199551 44.5451538,17.345769 C44.5708252,17.5885772 44.6405047,17.7425226 44.8825491,17.8639267 C45.9546346,18.4021099 46.3262583,19.6975043 45.7443738,20.7713675 C45.2126096,21.7513615 43.880143,22.1093159 42.9547511,21.5223207 C41.9462328,20.8827589 41.6393987,19.5423073 42.3092994,18.5548037 C42.4853317,18.2944733 42.7420454,18.0479103 43.0170958,17.9127387 C43.3227074,17.762548 43.4070562,17.5535327 43.436395,17.2531514 C43.5806436,15.781283 43.7310045,14.3106662 43.8813654,12.8387978 C43.8935899,12.7161421 43.9217062,12.5947379 43.9424878,12.4720822 C43.9669367,12.4720822 43.9913856,12.4708307 44.017057,12.4708307" id="Fill-4" sketch:type="MSShapeGroup"></path>
                <path d="M31.2828328,12.4833465 C31.3830734,13.3269174 31.4845364,14.1704882 31.5811097,15.0140591 C31.6727932,15.8200822 31.7400277,16.6298602 31.8598275,17.430877 C31.8842764,17.5948351 32.0627536,17.7863282 32.2180043,17.8714363 C33.1825145,18.4008583 33.5736974,19.7976314 33.0064822,20.7626064 C32.3854794,21.8201989 31.0603475,22.1318445 30.1215087,21.4397159 C28.8623889,20.511037 28.9870784,18.5810871 30.3708878,17.8676815 C30.615377,17.7425226 30.6875014,17.5948351 30.7107279,17.3520269 C30.8708683,15.7262131 31.0358986,14.1016508 31.1997064,12.475837 C31.2278227,12.4783402 31.2547165,12.4808434 31.2828328,12.4833465" id="Fill-5" sketch:type="MSShapeGroup"></path>
                <path d="M37.6652255,0.244059813 C37.8412578,1.84233869 38.0209574,3.43936598 38.1884325,5.03764486 C38.2202161,5.34178093 38.3180119,5.53452561 38.6089541,5.69097421 C39.6321417,6.2379185 39.9548676,7.56460262 39.353424,8.60091813 C38.7898762,9.57089944 37.5148646,9.88629981 36.5858053,9.2855372 C35.5931788,8.64222056 35.2985692,7.30427215 35.9733596,6.34054879 C36.1579491,6.07521196 36.4342219,5.84491963 36.7166071,5.69097421 C36.9892126,5.54078355 37.083341,5.37432224 37.1090124,5.07018617 C37.2361468,3.57954393 37.390175,2.09265645 37.5368686,0.605768972 C37.5490931,0.481861682 37.5796542,0.36045757 37.6028807,0.237801869 C37.6236623,0.239053458 37.6444439,0.241556636 37.6652255,0.244059813" id="Fill-6" sketch:type="MSShapeGroup"></path>
            </g>
        </g>
    </g>
</svg>